<svg xmlns="http://www.w3.org/2000/svg" width="1200" height="1200" viewBox="0 0 1200 1200">
<defs>
 <filter id="mot" x="0" y="0" width="100%" height="100%"><feTurbulence type="fractalNoise" baseFrequency="0.003" numOctaves="4" seed="11" stitchTiles="stitch"/><feColorMatrix values="0 0 0 0 0.6 0 0 0 0 0.45 0 0 0 0 0.25 0.3 0 0 0 -0.120"/></filter>
 <filter id="rib" x="0" y="0" width="100%" height="100%"><feTurbulence type="fractalNoise" baseFrequency="0.07 0.55" numOctaves="2" seed="5" stitchTiles="stitch"/><feColorMatrix values="0 0 0 0 0.5 0 0 0 0 0.36 0 0 0 0 0.18 0.22 0 0 0 -0.075"/></filter>
</defs>
<rect width="1200" height="1200" fill="#f6ead2"/>
<rect width="1200" height="1200" filter="url(#mot)"/>
<rect width="1200" height="1200" filter="url(#rib)"/>
<path d="M266 913Q282 923 298 946" stroke="#8a6a3a" stroke-opacity="0.12" stroke-width="0.6" fill="none" stroke-linecap="round"/>
<path d="M1092 68Q1110 83 1146 118" stroke="#8a6a3a" stroke-opacity="0.17" stroke-width="0.6" fill="none" stroke-linecap="round"/>
<path d="M62 72Q91 95 104 109" stroke="#8a6a3a" stroke-opacity="0.22" stroke-width="0.5" fill="none" stroke-linecap="round"/>
<path d="M395 223Q433 248 489 267" stroke="#8a6a3a" stroke-opacity="0.14" stroke-width="0.6" fill="none" stroke-linecap="round"/>
<path d="M1182 531Q1184 519 1204 510" stroke="#8a6a3a" stroke-opacity="0.20" stroke-width="0.8" fill="none" stroke-linecap="round"/>
<path d="M1157 249Q1185 262 1201 277" stroke="#8a6a3a" stroke-opacity="0.09" stroke-width="0.6" fill="none" stroke-linecap="round"/>
<path d="M235 650Q268 640 292 631" stroke="#8a6a3a" stroke-opacity="0.17" stroke-width="0.5" fill="none" stroke-linecap="round"/>
<path d="M974 920Q973 920 990 902" stroke="#8a6a3a" stroke-opacity="0.12" stroke-width="0.8" fill="none" stroke-linecap="round"/>
<path d="M75 727Q110 710 126 711" stroke="#8a6a3a" stroke-opacity="0.19" stroke-width="0.8" fill="none" stroke-linecap="round"/>
<path d="M380 331Q397 338 398 340" stroke="#8a6a3a" stroke-opacity="0.21" stroke-width="0.5" fill="none" stroke-linecap="round"/>
<path d="M991 129Q1039 132 1075 124" stroke="#8a6a3a" stroke-opacity="0.21" stroke-width="0.6" fill="none" stroke-linecap="round"/>
<path d="M159 596Q163 607 174 610" stroke="#8a6a3a" stroke-opacity="0.11" stroke-width="0.5" fill="none" stroke-linecap="round"/>
<path d="M393 383Q408 390 439 409" stroke="#8a6a3a" stroke-opacity="0.19" stroke-width="0.5" fill="none" stroke-linecap="round"/>
<path d="M489 779Q514 781 552 785" stroke="#8a6a3a" stroke-opacity="0.10" stroke-width="0.5" fill="none" stroke-linecap="round"/>
<path d="M318 101Q336 100 347 101" stroke="#8a6a3a" stroke-opacity="0.12" stroke-width="0.6" fill="none" stroke-linecap="round"/>
<path d="M553 1070Q579 1076 594 1072" stroke="#8a6a3a" stroke-opacity="0.19" stroke-width="0.6" fill="none" stroke-linecap="round"/>
<path d="M353 680Q371 686 401 703" stroke="#8a6a3a" stroke-opacity="0.12" stroke-width="0.5" fill="none" stroke-linecap="round"/>
<path d="M338 1089Q346 1071 364 1063" stroke="#8a6a3a" stroke-opacity="0.16" stroke-width="0.8" fill="none" stroke-linecap="round"/>
<path d="M970 784Q1011 755 1053 712" stroke="#8a6a3a" stroke-opacity="0.20" stroke-width="0.6" fill="none" stroke-linecap="round"/>
<path d="M48 352Q71 346 74 336" stroke="#8a6a3a" stroke-opacity="0.21" stroke-width="0.6" fill="none" stroke-linecap="round"/>
<path d="M615 213Q651 221 681 249" stroke="#8a6a3a" stroke-opacity="0.17" stroke-width="0.8" fill="none" stroke-linecap="round"/>
<path d="M744 261Q759 240 786 229" stroke="#8a6a3a" stroke-opacity="0.17" stroke-width="0.8" fill="none" stroke-linecap="round"/>
<circle cx="1097" cy="978" r="0.9" fill="#6b5530" fill-opacity="0.29"/>
<circle cx="446" cy="745" r="0.5" fill="#6b5530" fill-opacity="0.22"/>
<circle cx="954" cy="658" r="0.5" fill="#6b5530" fill-opacity="0.29"/>
<circle cx="955" cy="797" r="0.7" fill="#6b5530" fill-opacity="0.37"/>
<circle cx="109" cy="196" r="0.9" fill="#6b5530" fill-opacity="0.29"/>
<circle cx="340" cy="369" r="0.5" fill="#6b5530" fill-opacity="0.26"/>
<circle cx="680" cy="429" r="1.2" fill="#6b5530" fill-opacity="0.16"/>
<circle cx="920" cy="963" r="0.7" fill="#6b5530" fill-opacity="0.29"/>
<circle cx="486" cy="1130" r="1.2" fill="#6b5530" fill-opacity="0.47"/>
<circle cx="509" cy="984" r="1.2" fill="#6b5530" fill-opacity="0.35"/>
<circle cx="438" cy="928" r="0.7" fill="#6b5530" fill-opacity="0.16"/>
<circle cx="662" cy="769" r="1.2" fill="#6b5530" fill-opacity="0.18"/>
<circle cx="747" cy="445" r="1.6" fill="#6b5530" fill-opacity="0.21"/>
<circle cx="418" cy="194" r="0.7" fill="#6b5530" fill-opacity="0.47"/>
<circle cx="131" cy="589" r="0.7" fill="#6b5530" fill-opacity="0.26"/>
<circle cx="1005" cy="52" r="1.2" fill="#6b5530" fill-opacity="0.26"/>
<circle cx="729" cy="764" r="0.5" fill="#6b5530" fill-opacity="0.47"/>
<circle cx="744" cy="989" r="0.7" fill="#6b5530" fill-opacity="0.37"/>
<circle cx="1028" cy="745" r="1.6" fill="#6b5530" fill-opacity="0.45"/>
<circle cx="995" cy="220" r="0.7" fill="#6b5530" fill-opacity="0.16"/>
<circle cx="1126" cy="188" r="0.9" fill="#6b5530" fill-opacity="0.19"/>
<circle cx="296" cy="870" r="0.7" fill="#6b5530" fill-opacity="0.16"/>
<circle cx="675" cy="909" r="0.5" fill="#6b5530" fill-opacity="0.38"/>
<circle cx="389" cy="468" r="1.2" fill="#6b5530" fill-opacity="0.34"/>
<circle cx="752" cy="367" r="1.2" fill="#6b5530" fill-opacity="0.26"/>
<circle cx="299" cy="467" r="0.9" fill="#6b5530" fill-opacity="0.31"/>
<circle cx="526" cy="28" r="1.6" fill="#6b5530" fill-opacity="0.50"/>
<circle cx="558" cy="536" r="1.6" fill="#6b5530" fill-opacity="0.42"/>
<circle cx="550" cy="215" r="1.2" fill="#6b5530" fill-opacity="0.29"/>
<circle cx="81" cy="430" r="0.9" fill="#6b5530" fill-opacity="0.18"/>
<circle cx="530" cy="612" r="0.5" fill="#6b5530" fill-opacity="0.16"/>
<circle cx="156" cy="1107" r="0.9" fill="#6b5530" fill-opacity="0.42"/>
<circle cx="614" cy="65" r="1.6" fill="#6b5530" fill-opacity="0.46"/>
<circle cx="783" cy="941" r="0.5" fill="#6b5530" fill-opacity="0.45"/>
<circle cx="1195" cy="879" r="0.5" fill="#6b5530" fill-opacity="0.22"/>
<circle cx="1178" cy="590" r="0.7" fill="#6b5530" fill-opacity="0.39"/>
<circle cx="865" cy="265" r="0.9" fill="#6b5530" fill-opacity="0.36"/>
<circle cx="303" cy="389" r="1.6" fill="#6b5530" fill-opacity="0.25"/>
<circle cx="979" cy="172" r="1.6" fill="#6b5530" fill-opacity="0.49"/>
<circle cx="576" cy="710" r="1.6" fill="#6b5530" fill-opacity="0.33"/>
<circle cx="383" cy="44" r="0.7" fill="#6b5530" fill-opacity="0.29"/>
<circle cx="764" cy="334" r="0.9" fill="#6b5530" fill-opacity="0.46"/>
<circle cx="202" cy="942" r="0.5" fill="#6b5530" fill-opacity="0.42"/>
<circle cx="58" cy="1030" r="1.2" fill="#6b5530" fill-opacity="0.34"/>
<circle cx="696" cy="1059" r="0.5" fill="#6b5530" fill-opacity="0.24"/>
<circle cx="643" cy="1028" r="0.9" fill="#6b5530" fill-opacity="0.24"/>
<circle cx="1189" cy="693" r="0.9" fill="#6b5530" fill-opacity="0.27"/>
<circle cx="98" cy="276" r="1.6" fill="#6b5530" fill-opacity="0.41"/>
<circle cx="58" cy="984" r="0.9" fill="#6b5530" fill-opacity="0.26"/>
<circle cx="1159" cy="1044" r="0.9" fill="#6b5530" fill-opacity="0.41"/>
<circle cx="897" cy="266" r="0.9" fill="#6b5530" fill-opacity="0.37"/>
<circle cx="519" cy="615" r="0.5" fill="#6b5530" fill-opacity="0.20"/>
<circle cx="273" cy="784" r="0.5" fill="#6b5530" fill-opacity="0.17"/>
<circle cx="681" cy="364" r="1.6" fill="#6b5530" fill-opacity="0.28"/>
<circle cx="269" cy="700" r="1.6" fill="#6b5530" fill-opacity="0.20"/>
<circle cx="439" cy="994" r="0.7" fill="#6b5530" fill-opacity="0.20"/>
<circle cx="1124" cy="292" r="0.7" fill="#6b5530" fill-opacity="0.31"/>
<circle cx="76" cy="174" r="0.9" fill="#6b5530" fill-opacity="0.29"/>
<circle cx="317" cy="14" r="1.6" fill="#6b5530" fill-opacity="0.46"/>
<circle cx="714" cy="694" r="1.6" fill="#6b5530" fill-opacity="0.48"/>
<circle cx="880" cy="298" r="0.5" fill="#6b5530" fill-opacity="0.17"/>
<circle cx="638" cy="487" r="0.7" fill="#6b5530" fill-opacity="0.21"/>
<circle cx="1094" cy="126" r="1.6" fill="#6b5530" fill-opacity="0.34"/>
<circle cx="1129" cy="171" r="0.7" fill="#6b5530" fill-opacity="0.33"/>
<circle cx="771" cy="777" r="1.2" fill="#6b5530" fill-opacity="0.43"/>
<circle cx="210" cy="371" r="0.9" fill="#6b5530" fill-opacity="0.37"/>
<circle cx="1193" cy="869" r="1.2" fill="#6b5530" fill-opacity="0.40"/>
<circle cx="8" cy="1013" r="1.2" fill="#6b5530" fill-opacity="0.18"/>
<circle cx="787" cy="210" r="0.5" fill="#6b5530" fill-opacity="0.24"/>
<circle cx="773" cy="148" r="0.9" fill="#6b5530" fill-opacity="0.40"/>
<circle cx="319" cy="665" r="1.2" fill="#6b5530" fill-opacity="0.39"/>
<circle cx="1101" cy="1166" r="0.9" fill="#6b5530" fill-opacity="0.37"/>
<circle cx="1158" cy="260" r="1.6" fill="#6b5530" fill-opacity="0.16"/>
<circle cx="312" cy="283" r="0.7" fill="#6b5530" fill-opacity="0.48"/>
<circle cx="895" cy="392" r="1.2" fill="#6b5530" fill-opacity="0.26"/>
<circle cx="287" cy="1089" r="1.6" fill="#6b5530" fill-opacity="0.31"/>
<circle cx="1008" cy="837" r="0.5" fill="#6b5530" fill-opacity="0.30"/>
<circle cx="870" cy="684" r="0.9" fill="#6b5530" fill-opacity="0.43"/>
<circle cx="470" cy="702" r="1.6" fill="#6b5530" fill-opacity="0.47"/>
<circle cx="174" cy="32" r="0.5" fill="#6b5530" fill-opacity="0.37"/>
<circle cx="194" cy="1173" r="0.5" fill="#6b5530" fill-opacity="0.16"/>
<circle cx="166" cy="772" r="0.5" fill="#6b5530" fill-opacity="0.39"/>
<circle cx="884" cy="79" r="1.6" fill="#6b5530" fill-opacity="0.42"/>
<circle cx="239" cy="1145" r="1.6" fill="#6b5530" fill-opacity="0.46"/>
<circle cx="79" cy="1041" r="1.2" fill="#6b5530" fill-opacity="0.19"/>
<circle cx="247" cy="134" r="0.5" fill="#6b5530" fill-opacity="0.48"/>
<circle cx="1093" cy="905" r="0.5" fill="#6b5530" fill-opacity="0.44"/>
<circle cx="758" cy="345" r="0.5" fill="#6b5530" fill-opacity="0.20"/>
<circle cx="950" cy="776" r="0.9" fill="#6b5530" fill-opacity="0.26"/>
<circle cx="509" cy="25" r="0.9" fill="#6b5530" fill-opacity="0.48"/>
<circle cx="58" cy="912" r="0.9" fill="#6b5530" fill-opacity="0.42"/>
<circle cx="722" cy="571" r="0.9" fill="#6b5530" fill-opacity="0.37"/>
<circle cx="37" cy="496" r="1.2" fill="#6b5530" fill-opacity="0.33"/>
<circle cx="118" cy="563" r="0.5" fill="#6b5530" fill-opacity="0.34"/>
<circle cx="260" cy="1035" r="0.5" fill="#6b5530" fill-opacity="0.35"/>
<circle cx="345" cy="523" r="1.6" fill="#6b5530" fill-opacity="0.22"/>
<circle cx="915" cy="1173" r="0.5" fill="#6b5530" fill-opacity="0.27"/>
<circle cx="115" cy="834" r="0.7" fill="#6b5530" fill-opacity="0.49"/>
<circle cx="711" cy="1149" r="1.6" fill="#6b5530" fill-opacity="0.24"/>
<circle cx="1133" cy="340" r="0.7" fill="#6b5530" fill-opacity="0.48"/>
<circle cx="278" cy="199" r="0.5" fill="#6b5530" fill-opacity="0.32"/>
<circle cx="1189" cy="674" r="0.5" fill="#6b5530" fill-opacity="0.37"/>
<circle cx="427" cy="482" r="1.2" fill="#6b5530" fill-opacity="0.46"/>
<circle cx="894" cy="507" r="0.5" fill="#6b5530" fill-opacity="0.28"/>
<circle cx="364" cy="514" r="1.6" fill="#6b5530" fill-opacity="0.33"/>
<circle cx="455" cy="1061" r="0.7" fill="#6b5530" fill-opacity="0.48"/>
<circle cx="152" cy="713" r="1.6" fill="#6b5530" fill-opacity="0.38"/>
<circle cx="418" cy="392" r="0.7" fill="#6b5530" fill-opacity="0.45"/>
<circle cx="540" cy="664" r="0.9" fill="#6b5530" fill-opacity="0.21"/>
<circle cx="527" cy="928" r="1.6" fill="#6b5530" fill-opacity="0.23"/>
</svg>